<svg width="145" height="132" viewBox="0 0 145 132" fill="none" xmlns="http://www.w3.org/2000/svg">
<path d="M97 9.09998C102.1 9.09998 106.8 11.8 109.3 16.2L133.6 58.6C136.4 63.5 136 69.7 132.6 74.2L99.9 117.7C97.2001 121.3 93.0001 123.4 88.6001 123.4H56.1001C51.6001 123.4 47.4001 121.3 44.7001 117.7L11.9 73.8C8.50005 69.3 8.20002 63.1 11 58.2L35.2001 16.3C37.7001 11.9 42.4 9.20001 47.5 9.20001H97M97 0.599976H47.5C39.4 0.599976 31.9 4.90002 27.9 11.9L3.7001 53.8C-0.799902 61.7 -0.299902 71.4 5.2001 78.7L38 122.6C42.3 128.3 49.0001 131.7 56.2001 131.7H88.7001C95.8001 131.7 102.5 128.3 106.8 122.7L139.5 79.2C145 72 145.6 62.2 141.1 54.3L116.8 11.9C112.6 5.00002 105.1 0.599976 97 0.599976Z" fill="white"/>
<path d="M35.2001 16.2L11 58.1C8.20004 63 8.50006 69.1 11.9001 73.7L44.7001 117.6C47.4001 121.2 51.6001 123.3 56.1001 123.3H88.6001C93.1001 123.3 97.3001 121.2 99.9001 117.6L132.6 74.1C136 69.6 136.4 63.4 133.6 58.5L109.3 16.1C106.8 11.7 102.1 9 97 9H47.5C42.4 9.1 37.7001 11.8 35.2001 16.2Z" fill="#1A1939"/>
<path d="M89.9009 44.1521C89.9038 42.7841 90.3021 41.7139 91.0957 40.9416C91.9074 40.1693 92.9432 39.7846 94.2032 39.7872C95.4632 39.7899 96.4884 40.1791 97.2787 40.9548C98.0871 41.7305 98.4898 42.8024 98.4869 44.1704C98.4839 45.5564 98.0766 46.6355 97.265 47.4078C96.4713 48.1801 95.4445 48.5649 94.1845 48.5622C92.9245 48.5595 91.8903 48.1703 91.082 47.3946C90.2916 46.6189 89.898 45.5381 89.9009 44.1521ZM107.243 40.139L96.5923 59.0164L92.9203 59.0085L103.545 40.1311L107.243 40.139ZM94.1714 42.0552C93.1814 42.0531 92.6849 42.754 92.6819 44.158C92.6789 45.58 93.1724 46.2921 94.1624 46.2942C94.6483 46.2952 95.0267 46.125 95.2974 45.7836C95.5682 45.4242 95.7044 44.8844 95.7059 44.1644C95.7089 42.7604 95.1974 42.0574 94.1714 42.0552ZM101.731 54.9503C101.734 53.5643 102.132 52.4942 102.926 51.7398C103.737 50.9676 104.773 50.5828 106.033 50.5855C107.293 50.5881 108.309 50.9773 109.082 51.753C109.872 52.5106 110.266 53.5825 110.263 54.9685C110.26 56.3545 109.862 57.4336 109.068 58.2059C108.292 58.9783 107.275 59.3631 106.015 59.3604C104.737 59.3577 103.702 58.9685 102.912 58.1928C102.122 57.4171 101.728 56.3363 101.731 54.9503ZM106.001 52.8534C104.975 52.8512 104.461 53.5521 104.458 54.9561C104.455 56.3781 104.966 57.0902 105.992 57.0924C107 57.0945 107.506 56.3846 107.509 54.9626C107.512 53.5586 107.009 52.8555 106.001 52.8534Z" fill="white"/>
</svg>
