<svg width="373" height="166" viewBox="0 0 373 166" fill="none" xmlns="http://www.w3.org/2000/svg">
<path d="M276.2 0C271.4 0 267.1 2.40001 264.2 6.20001C264.2 6.20001 264.2 6.19999 264.2 6.29999L226.1 56.9C221.4 63.2 213.8 67 205.9 67H165.6C157.7 67 150.1 63.2 145.3 56.8L107.2 5.70001C107.2 5.70001 107.2 5.69998 107.2 5.59998C104.7 2.19998 100.7 0 96.5001 0H10.9001C2.60008 0 -2.0999 9.39998 2.8001 16.1L108.6 157.9C112.3 162.8 118.1 165.7 124.2 165.7H247.9C253.8 165.7 259.4 162.9 263 158.2L370.1 16C375 9.4 370.4 0.0999756 362.2 0.0999756L276.2 0Z" fill="url(#paint0_linear_9_10)"/>
<defs>
<linearGradient id="paint0_linear_9_10" x1="186.298" y1="197.05" x2="186.298" y2="-215.962" gradientUnits="userSpaceOnUse">
<stop offset="8.15978e-08" stop-opacity="0"/>
<stop offset="1" stop-color="#00A66A"/>
</linearGradient>
</defs>
</svg>
