<svg width="57" height="81" viewBox="0 0 57 81" fill="none" xmlns="http://www.w3.org/2000/svg">
<path d="M53.2 51.6C54.8 50 56.1 48.2 56.1 45.7C56.1 41.7 52.8 38.3 48.8 38.3H31.3C31.1 38.3 30.8 38.2 30.6 38.1C30.5 38.1 30.5 38 30.4 38C30.3 37.9 30.2 37.8 30.2 37.7C30.2 37.7 30.2 37.6 30.2 37.5V37.4V37.3C30.2 37.2 30.2 37 30.2 36.8V26.6C30.2 26.5 30.2 26.3 30.2 26.2C30.2 25.6 30.1 25.1 30 24.5C29.8 23.3 29.3 22.5 28.7 21.8C27.4 20 25.2 18.8 22.8 18.8C21 18.8 19.3 19.5 18 20.6C17.9 20.7 17.7 20.8 17.6 21L0.800049 38.5H11.4L22.8 26.5C22.8 27.5 22.8 36.4 22.8 36.4C22.8 36.6 22.8 36.9 22.8 37.4V37.9C22.8 38.1 22.8 38.3 22.8 38.5C22.8 42.3 25.7 45.4 29.4 45.8C29.7 45.8 30 45.9 30.3 45.9H31.9C32 45.9 32 45.9 32.1 45.9H48.5C48.4 46.2 39.4 55.4 39.4 55.4V65.3L52.3 52.8C52.6 52.6 52.9 52.2 53.1 52L53.2 51.6Z" fill="#B1DCE3"/>
<path d="M26.5 14.9C30.366 14.9 33.5 11.766 33.5 7.89999C33.5 4.034 30.366 0.899994 26.5 0.899994C22.634 0.899994 19.5 4.034 19.5 7.89999C19.5 11.766 22.634 14.9 26.5 14.9Z" fill="#B1DCE3"/>
<path d="M49 26.3C52.866 26.3 56 23.166 56 19.3C56 15.434 52.866 12.3 49 12.3C45.134 12.3 42 15.434 42 19.3C42 23.166 45.134 26.3 49 26.3Z" fill="white"/>
<path d="M30.1 50.3H22.8V80.4H30.1V50.3Z" fill="#EF85AC"/>
</svg>
