<svg width="39" height="39" viewBox="0 0 39 39" fill="none" xmlns="http://www.w3.org/2000/svg">
<path d="M21.9 16.5C23.3 14.5 25.1 13.2 27.4 12.8C29.8 12.3 32.1 12.5 34.4 13.5C36.3 14.3 37.4 15.9 38.1 17.8C38.6 19.2 38.9 20.7 38.9 22.2C39.1 27.6 38.9 33 39 38.4C39 38.8 38.9 38.9 38.5 38.9C36.2 38.9 33.8 38.9 31.5 38.9C31 38.9 31 38.6 31 38.3C31 34 31 29.7 31 25.5C31 24.4 30.9 23.4 30.6 22.3C30 20.2 28.5 19.6 26.6 19.7C26.3 19.7 26 19.8 25.7 19.8C23.9 20.2 22.8 21.3 22.5 23.3C22.3 24.5 22.3 25.6 22.2 26.8C22.2 30.6 22.2 34.5 22.2 38.3C22.2 39 22.2 39 21.5 39C19.2 39 17 39 14.7 39C14.3 39 14.1 38.9 14.1 38.4C14.1 30.2 14.1 22 14.1 13.8C14.1 13.3 14.2 13.2 14.7 13.2C16.9 13.2 19.1 13.2 21.3 13.2C21.7 13.2 21.9 13.3 21.9 13.8C21.9 14.6 21.9 15.5 21.9 16.5Z" fill="#555968"/>
<path d="M9.29996 26C9.29996 30.1 9.29996 34.1 9.29996 38.2C9.29996 38.9 9.29995 38.9 8.59995 38.9C6.29995 38.9 4.09996 38.9 1.79996 38.9C1.29996 38.9 1.19995 38.8 1.19995 38.3C1.19995 30.1 1.19995 22 1.19995 13.8C1.19995 13.2 1.19996 13.2 1.79996 13.2C4.09996 13.2 6.29995 13.2 8.59995 13.2C9.29995 13.2 9.29996 13.2 9.29996 13.8C9.29996 17.9 9.29996 22 9.29996 26Z" fill="#555968"/>
<path d="M5.29998 9.70001C2.69998 9.70001 0.599976 7.6 0.599976 5C0.599976 2.4 2.69997 0.299988 5.19997 0.299988C7.79997 0.299988 9.89998 2.40002 9.89998 4.90002C9.89998 7.60002 7.79998 9.70001 5.29998 9.70001Z" fill="#555968"/>
</svg>
