<svg width="33" height="34" viewBox="0 0 33 34" fill="none" xmlns="http://www.w3.org/2000/svg">
<path d="M9.8999 33.2C4.6999 33.2 0.399902 29 0.399902 23.7C0.399902 21.2 1.39992 18.8 3.19992 17L8.8999 11.2L10.7999 13.1L5.09991 18.9C2.49991 21.6 2.49992 25.9 5.19992 28.5C7.79992 31.1 11.9999 31.1 14.6999 28.5L20.3999 22.8L22.2999 24.7L16.5999 30.4C14.8999 32.2 12.4999 33.2 9.8999 33.2Z" fill="#555968"/>
<path d="M24.2999 22.8L22.3999 20.9L28.0999 15.2C30.6999 12.6 30.6999 8.29998 28.0999 5.59998C26.7999 4.29998 25.0999 3.59998 23.2999 3.59998C21.4999 3.59998 19.7999 4.29998 18.4999 5.59998L12.7 11.3L10.7999 9.40002L16.5999 3.70001C18.3999 1.90001 20.7999 0.900024 23.2999 0.900024C28.4999 0.900024 32.7999 5.10002 32.7999 10.4C32.7999 12.9 31.7999 15.3 29.9999 17.1L24.2999 22.8Z" fill="#555968"/>
<path d="M20.4528 11.319L10.907 20.8648L12.8162 22.774L22.362 13.2281L20.4528 11.319Z" fill="#555968"/>
</svg>
