<svg width="97" height="102" viewBox="0 0 97 102" fill="none" xmlns="http://www.w3.org/2000/svg">
<path d="M82.2 44.3V0.199982H60V37.2C53 32.8 44.8 30.7 36 31C34.4 31 26.7 31.3 18.8 35.2C7.19998 40.9 0.599976 51.5 0.0999756 65.2C0.0999756 65.5 0.0999756 65.7 0.0999756 66C0.0999756 66.3 0.0999756 66.5 0.0999756 66.8C0.599976 80.5 7.19998 91.1 18.8 96.8C26.7 100.7 34.5 101 36 101C36.5 101 37 101 37.5 101C45.8 101 53.4 98.9 60 94.7V101.7H82.2V85.4C82.2 76.2 76.8 68.3 69 64.8C76.8 61.4 82.2 53.5 82.2 44.3ZM59.1 66C58.4 67.8 52.4 81.1 36.5 80.6H36.2C35.7 80.6 31.2 80.4 27.1 78.2C22.5 75.8 20.3 72 20.2 66C20.4 60 22.5 56.2 27.1 53.8C31.2 51.6 35.7 51.4 36.2 51.4H36.5C43.5 51.2 49.2 53.4 53.8 58.2C57 61.4 58.7 65 59.1 66Z" fill="white"/>
<path d="M91.8 0.199982C89.2 0.199982 87 2.39998 87 4.99998C87 7.69998 89.1 9.79999 91.8 9.79999C94.4 9.79999 96.6 7.59998 96.6 4.99998C96.6 2.39998 94.5 0.199982 91.8 0.199982ZM91.8 9.29999C89.5 9.29999 87.6 7.39998 87.6 5.09998C87.6 2.79998 89.5 0.899986 91.8 0.899986C94.1 0.899986 96 2.79998 96 5.09998C96 7.39998 94.1 9.29999 91.8 9.29999Z" fill="white"/>
<path d="M92.7999 5.49998C92.9999 5.39998 93.1999 5.19998 93.3999 4.99998C93.5999 4.79998 93.6999 4.49998 93.6999 4.09998C93.6999 3.69998 93.4999 3.29998 93.2999 2.99998C92.9999 2.69998 92.5999 2.59998 92.0999 2.59998H90.2999V7.39998H90.9999V5.49998H92.0999L92.9999 7.29998V7.39998H93.7999L92.7999 5.49998ZM92.8999 4.09998C92.8999 4.29998 92.7999 4.49997 92.6999 4.69997C92.5999 4.79997 92.2999 4.89998 92.0999 4.89998H90.9999V3.39998H92.0999C92.3999 3.39998 92.5999 3.49998 92.6999 3.59998C92.8999 3.69998 92.8999 3.89998 92.8999 4.09998Z" fill="white"/>
</svg>
