<svg width="24" height="24" viewBox="0 0 24 24" fill="none" xmlns="http://www.w3.org/2000/svg">
<path d="M0.014887 5.85498C0.014887 4.27499 0.47225 3.03803 1.38698 2.1441C2.32249 1.25016 3.51787 0.803192 4.97312 0.803192C6.42837 0.803192 7.61336 1.25016 8.52808 2.1441C9.4636 3.03803 9.93136 4.27499 9.93136 5.85498C9.93136 7.45575 9.4636 8.7031 8.52808 9.59704C7.61336 10.491 6.42837 10.9379 4.97312 10.9379C3.51787 10.9379 2.32249 10.491 1.38698 9.59704C0.47225 8.7031 0.014887 7.45575 0.014887 5.85498ZM20.0349 1.1774L7.77967 23.0061H3.53866L15.7627 1.1774H20.0349ZM4.94194 3.42264C3.79853 3.42264 3.22683 4.23342 3.22683 5.85498C3.22683 7.49733 3.79853 8.3185 4.94194 8.3185C5.50325 8.3185 5.93982 8.12101 6.25166 7.72601C6.5635 7.31022 6.71942 6.68655 6.71942 5.85498C6.71942 4.23342 6.12692 3.42264 4.94194 3.42264ZM13.7046 18.2973C13.7046 16.6966 14.162 15.4596 15.0767 14.5865C16.0122 13.6925 17.2076 13.2456 18.6628 13.2456C20.1181 13.2456 21.2927 13.6925 22.1866 14.5865C23.1013 15.4596 23.5587 16.6966 23.5587 18.2973C23.5587 19.8981 23.1013 21.1455 22.1866 22.0394C21.2927 22.9333 20.1181 23.3803 18.6628 23.3803C17.1868 23.3803 15.9914 22.9333 15.0767 22.0394C14.162 21.1455 13.7046 19.8981 13.7046 18.2973ZM18.6317 15.865C17.4467 15.865 16.8542 16.6758 16.8542 18.2973C16.8542 19.9397 17.4467 20.7609 18.6317 20.7609C19.7959 20.7609 20.378 19.9397 20.378 18.2973C20.378 16.6758 19.7959 15.865 18.6317 15.865Z" fill="white" fill-opacity="0.1"/>
</svg>
