<svg width="63" height="81" viewBox="0 0 63 81" fill="none" xmlns="http://www.w3.org/2000/svg">
<path d="M25.8 14.8C29.666 14.8 32.8 11.666 32.8 7.79999C32.8 3.93399 29.666 0.799988 25.8 0.799988C21.9341 0.799988 18.8 3.93399 18.8 7.79999C18.8 11.666 21.9341 14.8 25.8 14.8Z" fill="#B1DCE3"/>
<path d="M22.2 46.9L29.4999 53.1V80.4H22.2V46.9Z" fill="#EF85AC"/>
<path d="M55.3999 53C59.2659 53 62.3999 49.866 62.3999 46C62.3999 42.134 59.2659 39 55.3999 39C51.5339 39 48.3999 42.134 48.3999 46C48.3999 49.866 51.5339 53 55.3999 53Z" fill="white"/>
<path d="M30.2 39.1C29.7 38.6 29.6 38.2 29.5 37.9C29.4 37.5 29.4 36.8 29.4 36.7V36.6C29.4 36.6 29.4 36.6 29.4 36.5V26.3C29.4 26.2 29.4 26 29.4 25.9C29.4 25.3 29.3 24.8 29.2 24.2C29 23 28.5 22.2 27.9 21.5C26.6 19.7 24.4 18.5 22 18.5C20.2 18.5 18.5 19.2 17.2 20.3C17.1 20.4 16.9 20.5 16.8 20.7L0 38.2H10.6L22 26.2C22 27.2 22 36.1 22 36.1C22 36.3 22 36.6 22 37.1V37.6C22 37.8 22 38 22 38.2C22 40.2 22.8 41.9 24.1 43.3L46.7 65L56.4 65.1L30.2 39.1Z" fill="#B1DCE3"/>
</svg>
