<svg width="94" height="94" viewBox="0 0 94 94" fill="none" xmlns="http://www.w3.org/2000/svg">
<path d="M32.7999 66.8C31.9999 66.8 31.3999 66.2 31.3999 65.4C31.3999 57.1 38.0999 50.4 46.3999 50.4C47.1999 50.4 47.7999 51 47.7999 51.8C47.7999 52.6 47.1999 53.2 46.3999 53.2C39.5999 53.2 34.0999 58.7 34.0999 65.5C34.1999 66.2 33.5999 66.8 32.7999 66.8Z" fill="white"/>
<path d="M32.7999 67.3C31.7999 67.3 30.8999 66.5 30.8999 65.4C30.8999 56.8 37.8999 49.9 46.3999 49.9C47.3999 49.9 48.2999 50.7 48.2999 51.8C48.2999 52.8 47.4999 53.7 46.3999 53.7C39.8999 53.7 34.5999 59 34.5999 65.5C34.6999 66.4 33.7999 67.3 32.7999 67.3ZM46.4999 50.9C38.4999 50.9 31.9999 57.4 31.9999 65.4C31.9999 65.9 32.3999 66.3 32.8999 66.3C33.3999 66.3 33.7999 65.9 33.7999 65.4C33.7999 58.3 39.4999 52.6 46.5999 52.6C47.0999 52.6 47.4999 52.2 47.4999 51.7C47.2999 51.3 46.9999 50.9 46.4999 50.9Z" fill="white"/>
<path d="M62.4 56.3C62.2 56.6 61.8999 56.8 61.6999 57.1C60.9999 57.8 60.2999 58.5 59.4999 59.2C59.4999 59.2 59.5 59.3 59.4 59.3C59.1 59.5 59.0999 59.7 59.1999 59.9C59.3999 61.2 59.7 62.5 59.9 63.8C59.9 64 59.8999 64.2 59.6999 64.3C59.4999 64.4 59.3999 64.4 59.1999 64.3C58.0999 63.7 57 63.1 55.9 62.6C55.8 62.5 55.5999 62.5 55.4999 62.4C55.3999 62.3 55.2999 62.4 55.1999 62.4C54.1999 62.9 53.1999 63.5 52.0999 64C51.8999 64.1 51.6999 64.2 51.4999 64.3C51.2999 64.4 51.0999 64.4 50.9999 64.3C50.7999 64.2 50.8 64 50.8 63.8C51 62.4 51.2999 61.1 51.4999 59.7C51.4999 59.6 51.5 59.5 51.4 59.5C50.4 58.6 49.4999 57.6 48.4999 56.7L48.4 56.6C48.2 56.3 48.2999 56 48.5999 55.9C48.8999 55.8 49.1999 55.8 49.4999 55.8C50.4999 55.7 51.4999 55.5 52.4999 55.4C52.5999 55.4 52.5999 55.4 52.6999 55.4C52.8999 55.4 53.0999 55.3 53.1999 55.1C53.7999 53.9 54.4 52.7 54.9 51.6C54.9 51.5 54.9999 51.5 54.9999 51.4C55.1999 51.2 55.4999 51.2 55.6999 51.4C55.7999 51.5 55.8 51.6 55.9 51.7C56.5 52.9 57.0999 54 57.5999 55.2C57.6999 55.3 57.7 55.4 57.8 55.4C58.6 55.5 59.5 55.6 60.3 55.8C60.8 55.9 61.3 56 61.9 56C62.1 56 62.2 56.1 62.3 56.3C62.4 56.1 62.4 56.2 62.4 56.3Z" fill="#00D084"/>
<path d="M46.4999 47.3999C40.3999 47.3999 35.3999 42.4 35.3999 36.3C35.3999 30.2 40.3999 25.2 46.4999 25.2C52.5999 25.2 57.5999 30.2 57.5999 36.3C57.5999 42.4 52.5999 47.3999 46.4999 47.3999Z" fill="white"/>
<path d="M47.3 3.29999C71.4 3.29999 90.9 22.8 90.9 46.9C90.9 71 71.4 90.5 47.3 90.5C23.2 90.5 3.69995 71 3.69995 46.9C3.69995 22.8 23.3 3.29999 47.3 3.29999ZM47.3 0.299988C21.6 0.299988 0.699951 21.2 0.699951 46.9C0.699951 72.6 21.6 93.5 47.3 93.5C73 93.5 93.9 72.6 93.9 46.9C93.9 21.2 73.1 0.299988 47.3 0.299988Z" fill="white" fill-opacity="0.1"/>
</svg>
