<svg width="202" height="43" viewBox="0 0 202 43" fill="none" xmlns="http://www.w3.org/2000/svg">
<path opacity="0.1" d="M172.8 42.5C177.4 42.5 181.4 39.7 183.1 35.8C184.9 39.8 188.8 42.5 193.4 42.5H201.6V31.2H198.1C200.2 27.8 201.3 24 201.3 19.7C201.3 19.4 201.3 19.2 201.3 18.9C201.3 18.1 201.1 14.2 199.2 10.1C196.3 4.19998 191 0.799976 184.1 0.599976C184 0.599976 183.8 0.599976 183.7 0.599976C183.6 0.599976 183.4 0.599976 183.3 0.599976C176.4 0.799976 171.1 4.19998 168.2 10.1C166.3 14.1 166.1 18.1 166.1 18.9C166 23.4 167 27.6 169.2 31.1H150.6V42.4L172.8 42.5ZM183.7 30.8C183.2 30.6 181.4 29.7 179.7 28.1C177.3 25.7 176.2 22.9 176.3 19.3V19.1C176.3 18.8 176.4 16.6 177.5 14.5C178.7 12.2 180.6 11.1 183.7 11C186.7 11.1 188.6 12.2 189.9 14.5C191 16.6 191.1 18.9 191.1 19.1V19.2C191.3 27.4 184.6 30.4 183.7 30.8Z" fill="white"/>
<path opacity="0.1" d="M146.9 42.5V31.2H113V42.5H146.9Z" fill="white"/>
<path opacity="0.1" d="M109.2 42.5V31.2H75.3V42.5H109.2Z" fill="white"/>
<path opacity="0.1" d="M71.7 42.5V31.2H37.8V42.5H71.7Z" fill="white"/>
<path d="M33.9 42.5V31.2H0V42.5H33.9Z" fill="white"/>
</svg>
