<svg width="46" height="95" viewBox="0 0 46 95" fill="none" xmlns="http://www.w3.org/2000/svg">
<path d="M22.4999 39.5C22.4999 38.9 22.3999 38.4 22.2999 37.8C22.0999 36.6 21.5999 35.8 20.9999 35.1C19.6999 33.3 17.4999 32.1 15.0999 32.1C13.2999 32.1 11.5999 32.8 10.2999 33.9C10.1999 34 9.99996 34.1 9.89996 34.3L3.99994 40.3C1.59994 42.6 0.899927 44.8 0.799927 47.6V51.9H8.29993V47.8C8.29993 47 8.69995 46.3 9.19995 45.7L14.2 40.8L15.0999 39.9C15.0999 40.9 15.0999 59.3 15.0999 59.3H22.4C22.5 59.3 22.4999 39.6 22.4999 39.5Z" fill="#B1DCE3"/>
<path d="M18.8999 28.4C22.7659 28.4 25.8999 25.266 25.8999 21.4C25.8999 17.534 22.7659 14.4 18.8999 14.4C15.0339 14.4 11.8999 17.534 11.8999 21.4C11.8999 25.266 15.0339 28.4 18.8999 28.4Z" fill="#B1DCE3"/>
<path d="M39 14.4C42.866 14.4 46 11.266 46 7.40002C46 3.53403 42.866 0.400024 39 0.400024C35.134 0.400024 32 3.53403 32 7.40002C32 11.266 35.134 14.4 39 14.4Z" fill="white"/>
<path d="M22.4999 63.9H15.2V94.1H22.4999V63.9Z" fill="#EF85AC"/>
</svg>
