<svg width="378" height="166" viewBox="0 0 378 166" fill="none" xmlns="http://www.w3.org/2000/svg">
<path d="M104.8 165.2C106.6 165.2 108.3 164.2 109.1 162.6C109.2 162.4 132.1 122.7 132.2 122.5L137 114.2C142.4 104.8 152.4 99.1 163.2 99.1H218.8C227.9 99.1 236.2 104 240.7 111.8L262.8 150.4L268.5 160.4C270.2 163.4 273.4 165.2 276.9 165.2H367.3C375.1 165.2 379.9 156.8 376.1 150.1L295.8 9.89999C292.4 3.99999 286.2 0.399994 279.4 0.399994H99.8C93 0.399994 86.8 3.99999 83.4 9.89999L1.99999 150.9C-1.70001 157.3 2.90004 165.3 10.3 165.3H104.8V165.2Z" fill="url(#paint0_linear_9_9)"/>
<defs>
<linearGradient id="paint0_linear_9_9" x1="189.123" y1="396.285" x2="189.123" y2="-16.727" gradientUnits="userSpaceOnUse">
<stop offset="8.15978e-08" stop-opacity="0"/>
<stop offset="1" stop-color="#00A66A"/>
</linearGradient>
</defs>
</svg>
