<svg width="63" height="81" viewBox="0 0 63 81" fill="none" xmlns="http://www.w3.org/2000/svg">
<path d="M26.5 14.5C30.366 14.5 33.5 11.366 33.5 7.5C33.5 3.63401 30.366 0.5 26.5 0.5C22.634 0.5 19.5 3.63401 19.5 7.5C19.5 11.366 22.634 14.5 26.5 14.5Z" fill="#B1DCE3"/>
<path d="M22.8 46.5L30.1 52.8V80.1H22.8V46.5Z" fill="#EF85AC"/>
<path d="M56 39.4C59.866 39.4 63 36.266 63 32.4C63 28.534 59.866 25.4 56 25.4C52.134 25.4 49 28.534 49 32.4C49 36.266 52.134 39.4 56 39.4Z" fill="white"/>
<path d="M30.9 38.8C30.4 38.3 30.3 37.9 30.2 37.6C30.1 37.2 30.1 36.5 30.1 36.4V36.3C30.1 36.3 30.1 36.3 30.1 36.2V26C30.1 25.9 30.1 25.7 30.1 25.6C30.1 25 30 24.5 29.9 23.9C29.7 22.7 29.2 21.9 28.6 21.2C27.3 19.4 25.1 18.2 22.7 18.2C20.9 18.2 19.2 18.9 17.9 20C17.8 20.1 17.6 20.2 17.5 20.4L0.699951 37.9H11.3L22.7 25.9C22.7 26.9 22.7 35.8 22.7 35.8C22.7 36 22.7 36.3 22.7 36.8V37.3C22.7 37.5 22.7 37.7 22.7 37.9C22.7 39.9 23.5 41.6 24.8 43L47.4 64.7L57.1 64.8L30.9 38.8Z" fill="#B1DCE3"/>
<path d="M53.9 42.1H52.8V50.9H53.9V42.1Z" fill="#B1DCE3"/>
<path d="M59.3 42.1H58.2V50.9H59.3V42.1Z" fill="#B1DCE3"/>
<path d="M56.4999 43H55.3999V53.1H56.4999V43Z" fill="#B1DCE3"/>
</svg>
